<?xml version="1.0" standalone="no"?>
<!DOCTYPE svg PUBLIC "-//W3C//DTD SVG 20010904//EN"
 "http://www.w3.org/TR/2001/REC-SVG-20010904/DTD/svg10.dtd">
<svg version="1.0" xmlns="http://www.w3.org/2000/svg"
 width="104.000000pt" height="104.000000pt" viewBox="0 0 104.000000 104.000000"
 preserveAspectRatio="xMidYMid meet">
<metadata>
Created by potrace 1.14, written by Peter Selinger 2001-2017
</metadata>
<g transform="translate(0.000000,104.000000) scale(0.100000,-0.100000)"
fill="#000000" stroke="none">
<path d="M0 520 l0 -480 520 0 520 0 0 480 0 480 -190 0 c-190 0 -190 0 -170
-20 11 -11 20 -24 20 -30 0 -15 -38 -50 -55 -50 -17 0 -55 35 -55 50 0 6 9 19
20 30 l20 20 -107 0 c-78 -1 -103 -3 -90 -11 35 -20 11 -89 -32 -89 -20 0 -51
30 -51 50 0 7 7 22 17 32 16 17 9 18 -175 18 l-192 0 0 -480z m560 455 c10
-12 10 -21 2 -40 -19 -40 -82 -29 -82 15 0 37 55 55 80 25z m-302 -97 c15 -15
15 -51 0 -66 -7 -7 -25 -12 -40 -12 -36 0 -56 36 -39 69 13 23 59 29 79 9z
m120 0 c7 -7 12 -21 12 -33 0 -29 -19 -45 -52 -45 -34 0 -55 39 -38 71 12 22
59 26 78 7z m116 -4 c9 -8 16 -22 16 -29 0 -18 -27 -45 -45 -45 -18 0 -45 27
-45 45 0 18 27 45 45 45 7 0 21 -7 29 -16z m136 -4 c6 -12 8 -30 5 -40 -7 -24
-52 -37 -74 -23 -20 13 -26 50 -11 69 19 21 67 18 80 -6z m121 -1 c17 -33 -3
-69 -39 -69 -33 0 -52 16 -52 45 0 29 19 45 52 45 18 0 31 -7 39 -21z m117 9
c7 -7 12 -21 12 -33 0 -28 -19 -45 -50 -45 -14 0 -31 5 -38 12 -15 15 -15 51
0 66 15 15 61 15 76 0z m-647 -98 c30 -16 26 -67 -7 -82 -33 -15 -58 -1 -62
36 -6 47 26 68 69 46z m129 -10 c25 -25 25 -32 1 -61 -16 -20 -23 -22 -47 -14
-51 18 -40 95 13 95 7 0 22 -9 33 -20z m245 0 c35 -39 -3 -91 -55 -75 -28 9
-37 51 -15 75 10 11 26 20 35 20 9 0 25 -9 35 -20z m119 7 c28 -20 18 -69 -16
-81 -22 -8 -32 -6 -48 9 -24 22 -25 42 -3 67 19 21 42 23 67 5z m120 0 c28
-20 18 -69 -16 -81 -22 -8 -32 -6 -48 9 -24 22 -25 42 -3 67 19 21 42 23 67 5z
m-360 -19 c16 -26 -4 -53 -40 -53 -23 0 -30 5 -32 23 -2 13 -1 30 2 38 8 20
56 14 70 -8z m-350 -94 c19 -19 20 -35 4 -56 -20 -24 -44 -28 -67 -12 -23 17
-28 53 -9 72 17 17 54 15 72 -4z m128 -10 c17 -36 0 -59 -42 -59 -42 0 -59 23
-42 59 9 20 19 26 42 26 23 0 33 -6 42 -26z m116 14 c30 -30 -7 -95 -47 -81
-20 7 -41 32 -41 49 0 35 62 58 88 32z m114 -5 c10 -9 18 -22 18 -29 0 -17
-28 -44 -45 -44 -7 0 -21 7 -29 16 -9 8 -16 22 -16 29 0 16 27 45 42 45 6 0
20 -7 30 -17z m133 -7 c30 -45 -20 -91 -64 -59 -23 16 -28 52 -9 71 20 20 56
14 73 -12z m119 8 c30 -29 10 -74 -32 -74 -33 0 -52 16 -52 45 0 43 53 61 84
29z m128 -10 c15 -33 1 -58 -36 -62 -33 -4 -56 13 -56 42 0 51 71 66 92 20z
m120 0 c15 -33 1 -58 -36 -62 -33 -4 -56 13 -56 42 0 51 71 66 92 20z m-787
-90 c25 -25 15 -67 -19 -79 -24 -8 -31 -6 -47 14 -24 29 -24 36 1 61 24 24 43
25 65 4z m116 6 c22 -12 26 -59 7 -78 -7 -7 -21 -12 -33 -12 -29 0 -45 19 -45
52 0 39 34 57 71 38z m129 -10 c24 -24 25 -38 3 -62 -33 -37 -83 -17 -83 34 0
45 46 62 80 28z m245 0 c22 -24 13 -66 -15 -75 -52 -16 -90 36 -55 75 10 11
26 20 35 20 9 0 25 -9 35 -20z m117 3 c40 -36 7 -92 -48 -79 -32 8 -42 50 -19
76 22 24 43 25 67 3z m119 7 c22 -12 26 -59 7 -78 -17 -17 -48 -15 -70 5 -24
22 -23 49 4 67 26 19 33 19 59 6z m-363 -12 c22 -22 14 -57 -13 -64 -38 -9
-55 2 -55 35 0 38 41 56 68 29z m-418 -102 c29 -36 -13 -92 -57 -75 -26 9 -32
56 -11 77 16 16 53 15 68 -2z m125 -10 c30 -45 -20 -91 -64 -59 -23 16 -28 52
-9 71 20 20 56 14 73 -12z m119 8 c19 -19 20 -35 4 -56 -20 -24 -44 -28 -67
-12 -23 17 -28 53 -9 72 17 17 54 15 72 -4z m124 4 c20 -20 14 -56 -13 -74
-23 -15 -27 -15 -50 0 -27 18 -31 36 -15 67 12 22 59 26 78 7z m113 -9 c18
-18 19 -23 6 -42 -17 -26 -43 -33 -62 -17 -20 17 -19 57 3 69 24 15 29 14 53
-10z m127 9 c30 -30 -7 -95 -47 -81 -20 7 -41 32 -41 49 0 35 62 58 88 32z
m127 -12 c18 -27 11 -55 -19 -65 -50 -19 -89 22 -61 65 20 31 59 32 80 0z
m119 3 c30 -43 -20 -93 -63 -63 -23 17 -28 53 -9 72 19 19 55 14 72 -9z m-842
-96 c35 -31 17 -83 -28 -83 -21 0 -54 33 -54 52 0 12 39 48 52 48 6 0 20 -7
30 -17z m119 7 c22 -12 26 -59 7 -78 -15 -15 -51 -15 -66 0 -18 18 -15 65 6
77 22 13 29 13 53 1z m129 -10 c11 -11 20 -25 20 -32 0 -20 -32 -48 -55 -48
-43 0 -60 47 -28 82 21 23 38 23 63 -2z m120 2 c30 -24 21 -69 -15 -78 -35 -9
-53 1 -61 32 -6 21 -2 31 16 46 12 10 26 18 30 18 4 0 18 -8 30 -18z m238 2
c27 -18 27 -61 1 -77 -50 -31 -105 38 -59 75 27 22 30 22 58 2z m123 6 c22
-12 26 -59 7 -78 -17 -17 -48 -15 -70 5 -23 21 -23 38 2 63 23 23 33 24 61 10z
m-241 -14 c6 -8 10 -25 8 -38 -2 -19 -9 -23 -38 -23 -29 0 -36 4 -38 23 -4 28
14 52 38 52 10 0 23 -7 30 -14z m-386 -108 c9 -12 16 -26 16 -30 0 -13 -39
-48 -54 -48 -37 0 -61 61 -34 88 19 19 55 14 72 -10z m120 3 c22 -25 13 -58
-20 -73 -19 -9 -28 -8 -44 7 -22 20 -26 55 -8 73 18 18 53 14 72 -7z m120 3
c23 -23 20 -51 -9 -70 -23 -15 -27 -15 -50 0 -14 9 -25 25 -25 36 0 24 26 50
50 50 10 0 26 -7 34 -16z m244 4 c7 -7 12 -25 12 -40 0 -55 -78 -61 -95 -7
-13 41 52 78 83 47z m127 -12 c28 -43 -18 -91 -63 -67 -28 15 -35 40 -17 67
21 32 60 31 80 0z m-245 -5 c14 -26 3 -50 -26 -57 -30 -8 -54 11 -54 41 0 29
8 35 41 35 18 0 32 -7 39 -19z m-207 -80 c48 -18 34 -91 -18 -91 -47 0 -64 57
-27 88 19 14 15 14 45 3z m257 -9 c46 -37 -9 -106 -59 -75 -26 16 -26 59 1 77
28 20 31 20 58 -2z m-120 -7 c17 -20 5 -61 -19 -68 -23 -6 -61 18 -61 38 0 37
56 58 80 30z"/>
<path d="M197 873 c-16 -15 -6 -52 15 -59 28 -9 52 20 37 47 -10 19 -39 25
-52 12z"/>
<path d="M320 865 c-26 -31 18 -71 47 -43 12 12 13 20 4 37 -14 25 -34 27 -51
6z"/>
<path d="M561 861 c-13 -24 9 -57 33 -48 23 9 31 34 16 52 -17 20 -37 19 -49
-4z"/>
<path d="M687 874 c-13 -13 -7 -55 9 -61 24 -9 51 23 38 45 -12 19 -36 27 -47
16z"/>
<path d="M807 874 c-13 -13 -7 -52 9 -58 22 -9 46 13 42 38 -3 21 -37 34 -51
20z"/>
<path d="M164 756 c-11 -28 4 -48 33 -44 22 2 28 8 28 28 0 20 -6 26 -28 28
-18 2 -29 -2 -33 -12z"/>
<path d="M287 756 c-11 -28 4 -47 32 -44 20 2 26 8 26 28 0 20 -6 26 -26 28
-17 2 -29 -3 -32 -12z"/>
<path d="M534 756 c-10 -26 4 -48 28 -44 17 2 23 10 23 28 0 18 -6 26 -23 28
-13 2 -25 -3 -28 -12z"/>
<path d="M654 756 c-10 -26 4 -48 28 -44 17 2 23 10 23 28 0 18 -6 26 -23 28
-13 2 -25 -3 -28 -12z"/>
<path d="M774 756 c-10 -26 4 -46 31 -46 23 0 26 4 23 28 -3 31 -44 45 -54 18z"/>
<path d="M62 653 c-13 -24 3 -53 29 -53 24 0 36 27 22 49 -15 23 -40 25 -51 4z"/>
<path d="M192 661 c-8 -4 -12 -19 -10 -32 2 -18 9 -24 28 -24 19 0 26 6 28 24
3 20 -11 41 -28 41 -3 0 -11 -4 -18 -9z"/>
<path d="M310 655 c-17 -21 -8 -50 17 -53 30 -4 49 31 27 52 -19 20 -28 20
-44 1z"/>
<path d="M549 649 c-9 -17 -8 -25 4 -37 29 -28 73 12 47 43 -17 21 -37 19 -51
-6z"/>
<path d="M677 664 c-13 -13 -7 -55 9 -61 24 -9 51 23 38 45 -12 19 -36 27 -47
16z"/>
<path d="M802 661 c-8 -4 -12 -19 -10 -32 2 -18 9 -24 28 -24 28 0 39 27 20
50 -14 17 -20 18 -38 6z"/>
<path d="M922 661 c-8 -4 -12 -19 -10 -32 2 -18 9 -24 28 -24 19 0 26 6 28 24
3 20 -11 41 -28 41 -3 0 -11 -4 -18 -9z"/>
<path d="M137 553 c-14 -13 -7 -43 12 -53 15 -7 23 -6 35 6 19 19 20 26 4 42
-13 13 -41 16 -51 5z"/>
<path d="M254 538 c-9 -28 20 -52 47 -37 11 5 19 14 19 19 0 42 -53 57 -66 18z"/>
<path d="M382 548 c-16 -16 -15 -23 4 -42 21 -22 56 -3 52 27 -3 25 -37 34
-56 15z"/>
<path d="M627 554 c-12 -12 -8 -41 8 -54 20 -17 47 5 43 34 -3 21 -37 34 -51
20z"/>
<path d="M747 554 c-13 -14 -7 -43 12 -53 23 -13 45 8 39 36 -3 18 -38 30 -51
17z"/>
<path d="M864 538 c-12 -40 45 -60 60 -21 4 9 1 22 -5 29 -17 21 -47 17 -55
-8z"/>
<path d="M80 446 c-27 -33 18 -72 48 -42 13 13 14 20 6 34 -15 23 -38 26 -54
8z"/>
<path d="M200 446 c-27 -33 18 -72 48 -42 13 13 14 20 6 34 -15 23 -38 26 -54
8z"/>
<path d="M322 443 c-13 -24 3 -53 29 -53 24 0 36 27 22 49 -15 23 -40 25 -51
4z"/>
<path d="M452 451 c-8 -4 -12 -19 -10 -32 2 -18 9 -24 28 -24 28 0 39 27 20
50 -14 17 -20 18 -38 6z"/>
<path d="M689 444 c-16 -20 0 -49 27 -49 35 0 28 64 -7 65 -4 0 -12 -7 -20
-16z"/>
<path d="M810 445 c-26 -31 18 -71 47 -43 12 12 13 20 4 37 -14 25 -34 27 -51
6z"/>
<path d="M936 444 c-19 -19 -17 -33 7 -48 24 -15 56 17 41 41 -15 24 -29 26
-48 7z"/>
<path d="M97 343 c-12 -11 -8 -40 7 -52 28 -23 68 17 45 45 -12 15 -41 19 -52
7z"/>
<path d="M215 329 c-10 -31 16 -55 44 -40 24 13 27 31 9 49 -19 19 -46 14 -53
-9z"/>
<path d="M341 337 c-24 -29 17 -70 46 -46 8 7 13 22 11 33 -4 25 -40 33 -57
13z"/>
<path d="M467 344 c-13 -13 -7 -52 9 -58 22 -9 46 13 42 38 -3 21 -37 34 -51
20z"/>
<path d="M707 344 c-23 -23 7 -69 37 -58 25 10 17 58 -9 62 -12 2 -24 0 -28
-4z"/>
<path d="M825 330 c-6 -20 9 -50 26 -50 4 0 15 7 23 16 12 12 13 20 6 35 -14
25 -47 24 -55 -1z"/>
<path d="M194 236 c-15 -12 -17 -18 -8 -33 15 -24 58 -24 62 0 4 18 -14 47
-27 47 -4 0 -16 -6 -27 -14z"/>
<path d="M316 235 c-20 -21 -5 -55 25 -55 24 0 36 27 22 48 -14 23 -29 25 -47
7z"/>
<path d="M440 235 c-19 -23 -8 -50 20 -50 16 0 26 6 28 18 4 18 -14 47 -28 47
-4 0 -13 -7 -20 -15z"/>
<path d="M680 235 c-18 -22 -3 -57 23 -53 37 5 33 67 -4 68 -4 0 -12 -7 -19
-15z"/>
<path d="M805 233 c-18 -18 -16 -32 8 -47 21 -13 51 13 42 36 -10 24 -32 29
-50 11z"/>
<path d="M370 125 c-10 -12 -11 -21 -4 -33 15 -22 27 -24 49 -8 16 12 18 18 9
33 -15 24 -38 27 -54 8z"/>
<path d="M617 133 c-13 -13 -7 -51 10 -57 23 -9 47 17 38 43 -6 20 -34 28 -48
14z"/>
<path d="M374 965 c-9 -23 3 -45 24 -45 25 0 44 23 36 44 -8 20 -53 21 -60 1z"/>
<path d="M616 965 c-9 -24 4 -45 29 -45 13 0 25 7 29 15 9 24 -4 45 -29 45
-13 0 -25 -7 -29 -15z"/>
</g>
</svg>
